<svg width="47" height="52" viewBox="0 0 47 52" fill="none" xmlns="http://www.w3.org/2000/svg">
<path fill-rule="evenodd" clip-rule="evenodd" d="M40.6144 0C43.6116 0 46.029 2.42332 46.1719 5.27508V51.1523L40.4651 46.3078L37.3314 43.4561L33.9121 40.4764L35.3404 45.1761H5.41465C2.42596 45.1761 0 42.9062 0 39.8988V5.28574C0 2.43398 2.43023 0.00644535 5.42531 0.00644535H40.5994L40.6144 0ZM27.5487 12.1353H27.4847L27.0543 12.5612C31.4712 13.8389 33.6083 15.8343 33.6083 15.8343C30.7617 14.4118 28.1964 13.7005 25.631 13.413C23.7773 13.1255 21.9237 13.2767 20.3576 13.413H19.9315C18.9301 13.413 16.7994 13.839 13.9443 14.9782C12.9492 15.4105 12.3782 15.6937 12.3782 15.6937C12.3782 15.6937 14.5131 13.5599 19.2177 12.4207L18.93 12.1332C18.93 12.1332 15.3675 11.9969 11.5216 14.8376C11.5216 14.8376 7.67578 21.5329 7.67578 29.7869C7.67578 29.7869 9.80648 33.4922 15.651 33.6328C15.651 33.6328 16.5032 32.4978 17.3661 31.499C14.0849 30.5024 12.8065 28.5092 12.8065 28.5092C12.8065 28.5092 13.092 28.6497 13.5202 28.9351H13.6481C13.712 28.9351 13.7418 28.9671 13.7759 28.999V29.0118C13.81 29.0458 13.8398 29.0756 13.9038 29.0756C14.6069 29.3653 15.31 29.6506 15.8853 29.9275C17.1157 30.4538 18.4026 30.8368 19.7205 31.0689C21.7021 31.3563 23.9733 31.4948 26.56 31.0689C27.8384 30.7814 29.1168 30.5003 30.3952 29.9296C31.2262 29.5037 32.2489 29.0778 33.3718 28.3601C33.3718 28.3601 32.0934 30.3534 28.6737 31.3499C29.3768 32.3423 30.3676 33.4795 30.3676 33.4795C36.2142 33.3517 38.4854 29.6463 38.6133 29.8039C38.6133 21.5627 34.7461 14.8547 34.7461 14.8547C31.2624 12.2695 28.0025 12.1715 27.4272 12.1715L27.5465 12.1289L27.5487 12.1353ZM27.9492 21.5039C29.4412 21.5039 30.6445 22.7787 30.6445 24.3404C30.6445 25.9127 29.4348 27.1875 27.9492 27.1875C26.4636 27.1875 25.2539 25.9127 25.2539 24.3531C25.2581 22.7808 26.47 21.5103 27.9492 21.5103V21.5039ZM18.2312 21.5039C19.7167 21.5039 20.918 22.7787 20.918 24.3404C20.918 25.9127 19.7082 27.1875 18.2227 27.1875C16.7371 27.1875 15.5273 25.9127 15.5273 24.3531C15.5273 22.7808 16.7371 21.5103 18.2227 21.5103L18.2312 21.5039Z" fill="black"/>
</svg>
