<svg width="26" height="26" viewBox="0 0 26 26" fill="none" xmlns="http://www.w3.org/2000/svg">
<path d="M24.9164 6.40368C25.1859 5.45233 25.2602 4.45711 25.1348 3.47686C25.0094 2.4966 24.6869 1.55118 24.1863 0.696457C24.0629 0.484756 23.8854 0.30895 23.6717 0.186703C23.458 0.0644571 23.2156 7.62512e-05 22.9688 2.92966e-05C21.8433 -0.0031084 20.7316 0.24583 19.717 0.728227C18.7023 1.21062 17.8109 1.914 17.1094 2.78574H14.7656C14.0641 1.914 13.1727 1.21062 12.158 0.728227C11.1434 0.24583 10.0317 -0.0031084 8.90625 2.92966e-05C8.65945 7.62512e-05 8.417 0.0644571 8.20328 0.186703C7.98955 0.30895 7.81207 0.484756 7.68867 0.696457C7.18813 1.55118 6.86563 2.4966 6.74024 3.47686C6.61484 4.45711 6.68909 5.45233 6.95859 6.40368C6.39808 7.43218 6.1011 8.58127 6.09375 9.75002V10.6786C6.09595 12.2375 6.62528 13.7507 7.59725 14.9768C8.56922 16.203 9.92782 17.0713 11.4563 17.4432C11.013 18.2109 10.7803 19.08 10.7812 19.9643V20.4286H8.90625C8.28465 20.4286 7.68851 20.184 7.24897 19.7486C6.80943 19.3133 6.5625 18.7228 6.5625 18.1072C6.56095 16.7531 6.01721 15.455 5.05056 14.4976C4.08391 13.5401 2.7733 13.0015 1.40625 13C1.03329 13 0.675604 13.1468 0.411881 13.408C0.148158 13.6692 0 14.0235 0 14.3929C0 14.7623 0.148158 15.1166 0.411881 15.3778C0.675604 15.639 1.03329 15.7857 1.40625 15.7857C2.02785 15.7857 2.62399 16.0303 3.06353 16.4657C3.50307 16.901 3.75 17.4915 3.75 18.1072C3.75155 19.4612 4.29529 20.7593 5.26194 21.7167C6.22859 22.6742 7.5392 23.2128 8.90625 23.2143H10.7812V24.6071C10.7813 24.9766 10.9294 25.3308 11.1931 25.592C11.4569 25.8533 11.8145 26 12.1875 26C12.5605 26 12.9181 25.8533 13.1819 25.592C13.4456 25.3308 13.5937 24.9766 13.5938 24.6071V19.9643C13.5938 19.3486 13.8407 18.7581 14.2802 18.3228C14.7198 17.8874 15.3159 17.6429 15.9375 17.6429C16.5591 17.6429 17.1552 17.8874 17.5948 18.3228C18.0343 18.7581 18.2812 19.3486 18.2812 19.9643V24.6071C18.2812 24.9766 18.4294 25.3308 18.6931 25.592C18.9569 25.8533 19.3145 26 19.6875 26C20.0605 26 20.4181 25.8533 20.6819 25.592C20.9456 25.3308 21.0938 24.9766 21.0938 24.6071V19.9643C21.0947 19.08 20.862 18.2109 20.4188 17.4432C21.9472 17.0713 23.3058 16.203 24.2778 14.9768C25.2497 13.7507 25.779 12.2375 25.7812 10.6786V9.75002C25.7739 8.58127 25.4769 7.43218 24.9164 6.40368ZM22.9688 10.6786C22.9688 11.7868 22.5243 12.8496 21.7331 13.6333C20.9419 14.4169 19.8689 14.8572 18.75 14.8572H13.125C12.0061 14.8572 10.9331 14.4169 10.1419 13.6333C9.35072 12.8496 8.90625 11.7868 8.90625 10.6786V9.75002C8.91827 8.92 9.16733 8.11031 9.62461 7.41466C9.77038 7.22774 9.86417 7.00626 9.89666 6.77228C9.92914 6.53829 9.89918 6.29996 9.80977 6.081C9.40638 5.04853 9.38975 3.90708 9.76289 2.86351C10.3944 2.97875 10.9952 3.22169 11.5277 3.57716C12.0602 3.93264 12.513 4.39303 12.8578 4.92958C12.9849 5.12627 13.16 5.28815 13.3668 5.40031C13.5736 5.51248 13.8056 5.57133 14.0414 5.57145H17.8324C18.0684 5.57152 18.3006 5.51276 18.5077 5.40059C18.7147 5.28842 18.8899 5.12644 19.0172 4.92958C19.3619 4.39289 19.8146 3.9324 20.3471 3.5769C20.8797 3.22141 21.4805 2.97855 22.1121 2.86351C22.4853 3.90708 22.4686 5.04853 22.0652 6.081C21.9794 6.3016 21.9517 6.5402 21.9847 6.77434C22.0177 7.00847 22.1104 7.23042 22.2539 7.41931C22.7092 8.11394 22.957 8.92191 22.9688 9.75002V10.6786Z" fill="black"/>
</svg>
