<svg width="60" height="60" viewBox="0 0 60 60" fill="none" xmlns="http://www.w3.org/2000/svg">
<path fill-rule="evenodd" clip-rule="evenodd" d="M14.5285 3.3728C11.5695 3.3728 8.73152 4.548 6.63873 6.63998C4.54595 8.73195 3.36967 11.5694 3.36853 14.5285V44.2885C3.36853 47.2483 4.54431 50.0869 6.63722 52.1798C8.73012 54.2727 11.5687 55.4485 14.5285 55.4485H44.2885C47.2476 55.4474 50.0851 54.2711 52.1771 52.1783C54.269 50.0855 55.4442 47.2476 55.4442 44.2885V14.5285C55.4431 11.5702 54.2674 8.73335 52.1756 6.64149C50.0837 4.54963 47.2469 3.37394 44.2885 3.3728H14.5285ZM47.4985 14.5457C47.4985 15.3981 47.1599 16.2157 46.5571 16.8185C45.9543 17.4213 45.1367 17.7599 44.2842 17.7599C43.4318 17.7599 42.6142 17.4213 42.0114 16.8185C41.4086 16.2157 41.07 15.3981 41.07 14.5457C41.07 13.6932 41.4086 12.8756 42.0114 12.2728C42.6142 11.67 43.4318 11.3314 44.2842 11.3314C45.1367 11.3314 45.9543 11.67 46.5571 12.2728C47.1599 12.8756 47.4985 13.6932 47.4985 14.5457ZM29.4128 20.4942C27.0486 20.4942 24.7812 21.4334 23.1095 23.1052C21.4377 24.7769 20.4985 27.0443 20.4985 29.4085C20.4985 31.7727 21.4377 34.0401 23.1095 35.7119C24.7812 37.3836 27.0486 38.3228 29.4128 38.3228C31.777 38.3228 34.0444 37.3836 35.7162 35.7119C37.3879 34.0401 38.3271 31.7727 38.3271 29.4085C38.3271 27.0443 37.3879 24.7769 35.7162 23.1052C34.0444 21.4334 31.777 20.4942 29.4128 20.4942ZM16.2085 29.4085C16.2085 25.9077 17.5992 22.5502 20.0747 20.0747C22.5502 17.5992 25.9077 16.2085 29.4085 16.2085C32.9094 16.2085 36.2669 17.5992 38.7423 20.0747C41.2178 22.5502 42.6085 25.9077 42.6085 29.4085C42.6085 32.9094 41.2178 36.2668 38.7423 38.7423C36.2669 41.2178 32.9094 42.6085 29.4085 42.6085C25.9077 42.6085 22.5502 41.2178 20.0747 38.7423C17.5992 36.2668 16.2085 32.9094 16.2085 29.4085Z" fill="black"/>
</svg>
