<svg width="30" height="30" viewBox="0 0 30 30" fill="none" xmlns="http://www.w3.org/2000/svg">
<path d="M25.3125 2.34375H4.6875C4.0659 2.34375 3.46976 2.59068 3.03022 3.03022C2.59068 3.46976 2.34375 4.0659 2.34375 4.6875V25.3125C2.34375 25.9341 2.59068 26.5302 3.03022 26.9698C3.46976 27.4093 4.0659 27.6562 4.6875 27.6562H25.3125C25.9341 27.6562 26.5302 27.4093 26.9698 26.9698C27.4093 26.5302 27.6562 25.9341 27.6562 25.3125V4.6875C27.6562 4.0659 27.4093 3.46976 26.9698 3.03022C26.5302 2.59068 25.9341 2.34375 25.3125 2.34375ZM24.8438 24.8438H5.15625V5.15625H24.8438V24.8438ZM13.125 20.625V14.0625C13.1253 13.7703 13.2166 13.4854 13.3863 13.2474C13.5559 13.0095 13.7955 12.8303 14.0717 12.7348C14.3479 12.6393 14.647 12.6322 14.9274 12.7145C15.2078 12.7968 15.4556 12.9645 15.6363 13.1941C16.3506 12.8198 17.1494 12.636 17.9554 12.6606C18.7615 12.6851 19.5476 12.9173 20.2377 13.3345C20.9278 13.7517 21.4986 14.3399 21.8949 15.0423C22.2912 15.7446 22.4996 16.5373 22.5 17.3438V20.625C22.5 20.998 22.3518 21.3556 22.0881 21.6194C21.8244 21.8831 21.4667 22.0312 21.0938 22.0312C20.7208 22.0312 20.3631 21.8831 20.0994 21.6194C19.8357 21.3556 19.6875 20.998 19.6875 20.625V17.3438C19.6875 16.8465 19.49 16.3696 19.1383 16.0179C18.7867 15.6663 18.3098 15.4688 17.8125 15.4688C17.3152 15.4688 16.8383 15.6663 16.4867 16.0179C16.135 16.3696 15.9375 16.8465 15.9375 17.3438V20.625C15.9375 20.998 15.7893 21.3556 15.5256 21.6194C15.2619 21.8831 14.9042 22.0312 14.5312 22.0312C14.1583 22.0312 13.8006 21.8831 13.5369 21.6194C13.2732 21.3556 13.125 20.998 13.125 20.625ZM11.25 14.0625V20.625C11.25 20.998 11.1018 21.3556 10.8381 21.6194C10.5744 21.8831 10.2167 22.0312 9.84375 22.0312C9.47079 22.0312 9.1131 21.8831 8.84938 21.6194C8.58566 21.3556 8.4375 20.998 8.4375 20.625V14.0625C8.4375 13.6895 8.58566 13.3319 8.84938 13.0681C9.1131 12.8044 9.47079 12.6563 9.84375 12.6562C10.2167 12.6563 10.5744 12.8044 10.8381 13.0681C11.1018 13.3319 11.25 13.6895 11.25 14.0625ZM7.96875 9.375C7.96875 9.00416 8.07872 8.64165 8.28474 8.33331C8.49077 8.02496 8.78361 7.78464 9.12622 7.64273C9.46883 7.50081 9.84583 7.46368 10.2095 7.53603C10.5733 7.60837 10.9074 7.78695 11.1696 8.04918C11.4318 8.3114 11.6104 8.64549 11.6827 9.00921C11.7551 9.37292 11.7179 9.74992 11.576 10.0925C11.4341 10.4351 11.1938 10.728 10.8854 10.934C10.5771 11.14 10.2146 11.25 9.84375 11.25C9.34647 11.25 8.86956 11.0525 8.51793 10.7008C8.16629 10.3492 7.96875 9.87228 7.96875 9.375Z" fill="black"/>
</svg>
